PathFileType	4	(X/Y/Z)	/Users/niels/Desktop/University/Third Semester/Perception and Action/Exam/Gymnastics Motion Tracking/Code for Gym Tracking/Analyzed Data/Webcam_Backflip/id19_4_trajectory_Sports2D/id19_4_trajectory_Sports2D_px_person00.trc
DataRate	CameraRate	NumFrames	NumMarkers	Units	OrigDataRate	OrigDataStartFrame	OrigNumFrames
29.714285714285715	29.714285714285715	11	22	m	29.714285714285715	26	105
Frame#	Time	Hip			RHip			RKnee			RAnkle			RBigToe			RSmallToe			RHeel			LHip			LKnee			LAnkle			LBigToe			LSmallToe			LHeel			Neck			Head			Nose			RShoulder			RElbow			RWrist			LShoulder			LElbow			LWrist		
		X1	Y1	Z1	X2	Y2	Z2	X3	Y3	Z3	X4	Y4	Z4	X5	Y5	Z5	X6	Y6	Z6	X7	Y7	Z7	X8	Y8	Z8	X9	Y9	Z9	X10	Y10	Z10	X11	Y11	Z11	X12	Y12	Z12	X13	Y13	Z13	X14	Y14	Z14	X15	Y15	Z15	X16	Y16	Z16	X17	Y17	Z17	X18	Y18	Z18	X19	Y19	Z19	X20	Y20	Z20	X21	Y21	Z21	X22	Y22	Z22
26	0.875	0.9473765319420858	-0.6830767105027159	0.0	0.9391909185184824	-0.6805370450886392	0.0	1.0194344126319839	-0.7848585806657623	0.0	0.9789951493701177	-0.9106887099958947	0.0	1.0288879480558693	-0.9344932931866368	0.0	1.0163137531188897	-0.938339326981523	0.0	0.9650408508066572	-0.9278592579490519	0.0	0.9621745970761914	-0.6807331787536905	0.0	1.0237352358646201	-0.7790395658880169	0.0	0.9847026507815415	-0.8980690760732148	0.0	1.0349554434727204	-0.9289988336728591	0.0	1.029422080819944	-0.919404479260514	0.0	0.9659417432438968	-0.9160416193021776	0.0	1.0458986256200242	-0.5461520030330627	0.0	1.110248690421572	-0.49364870822502027	0.0	1.100101577219027	-0.5322407866850015	0.0	1.0239814087481787	-0.5552756687847422	0.0	0.9344986805604997	-0.5753146055104995	0.0	0.8551302740705693	-0.6023360875031643	0.0	1.0297968249644918	-0.5535694791812428	0.0	0.9552161842819875	-0.5853887403588932	0.0	0.9115211774750963	-0.6205197515018863	0.0
27	0.9086538461538461	0.9450529627610469	-0.6952902589280798	0.0	0.9367713982683602	-0.6934701923205083	0.0	1.0254105284464605	-0.7911822771461372	0.0	0.9787152572168057	-0.9147715356044421	0.0	1.0280792462013308	-0.9382408295855339	0.0	1.0154942879000932	-0.9418395495899461	0.0	0.9641274227613286	-0.930985684103344	0.0	0.9611840264395882	-0.6927437978308576	0.0	1.0308352037563888	-0.7850171595004095	0.0	0.9853134273210934	-0.9028750040450317	0.0	1.036239280000989	-0.9336517495995893	0.0	1.0299894963550633	-0.9251034953024853	0.0	0.9668583439995073	-0.9203249042827457	0.0	1.043532801302291	-0.5582491051511836	0.0	1.1026992207532849	-0.5013762188080737	0.0	1.0961716719925523	-0.5398393586805972	0.0	1.0201877207973025	-0.5709167361155617	0.0	0.936426115000569	-0.6039039502554626	0.0	0.8653734104579607	-0.6420977328247139	0.0	1.0276411165793111	-0.568207254473296	0.0	0.9565477910381278	-0.6103822040016635	0.0	0.9138078021047298	-0.6510207652598995	0.0
28	0.9423076923076923	0.9440535636489886	-0.7116834479866863	0.0	0.9360263757880461	-0.7107753391670383	0.0	1.0290590066232612	-0.8042858860105508	0.0	0.9783227398945911	-0.9259731146936044	0.0	1.0274103313702718	-0.9487320839621505	0.0	1.0145058457734513	-0.9521428393054546	0.0	0.9632820737546455	-0.9410452991604515	0.0	0.9610310281543317	-0.7091584544482851	0.0	1.0348973465678124	-0.7981559578452859	0.0	0.9851842397564792	-0.9153902586670329	0.0	1.0369169247572345	-0.944240234104233	0.0	1.0295897900667204	-0.9373280218572886	0.0	0.9667981569152304	-0.9316085931502909	0.0	1.0383253241526573	-0.571281505940054	0.0	1.0913183637675137	-0.5093163904755044	0.0	1.0889049342295833	-0.5478186604866228	0.0	1.0145223732758188	-0.5878458579585415	0.0	0.9437059335085868	-0.6355245830301904	0.0	0.88863961988729	-0.6850234437837994	0.0	1.02399679094587	-0.5843254996287776	0.0	0.964618668708718	-0.6376113128572809	0.0	0.9306203598812891	-0.6828464544155181	0.0
29	0.9759615384615384	0.9444782234246122	-0.7313814265238375	0.0	0.9370205030671833	-0.7315023811091067	0.0	1.0299624896513238	-0.8240269816912862	0.0	0.9780177762351804	-0.9445571654440903	0.0	1.0272214732442493	-0.9656922637404917	0.0	1.0136975101470969	-0.9691923179431864	0.0	0.962787290496566	-0.9583052184648471	0.0	0.9616295104913594	-0.7292171864352722	0.0	1.0356344562244517	-0.8182322862974566	0.0	0.984445362558746	-0.9354438279333863	0.0	1.037229689263384	-0.9600691341276757	0.0	1.028066963884021	-0.9555104435366694	0.0	0.9656488882267124	-0.949536639182811	0.0	1.030190904095921	-0.5844822113809035	0.0	1.0759213503056384	-0.5171614302341058	0.0	1.078238052403179	-0.5558595149837074	0.0	1.0072515154811255	-0.6048317263819049	0.0	0.9573556214778342	-0.6658943936928425	0.0	0.9255753424590103	-0.7235905237284711	0.0	1.0188976150245401	-0.6006890869900391	0.0	0.9802368009682173	-0.6630501728843647	0.0	0.9639819920344016	-0.710095233793706	0.0
30	1.0096153846153846	0.9463423775764596	-0.7527610017176053	0.0	0.939585076303214	-0.7538809091523194	0.0	1.028209345608993	-0.8486110153200892	0.0	0.9779382055351413	-0.9687264377310518	0.0	1.0277104280986797	-0.9869691636061932	0.0	1.0133288143375694	-0.9911339126715208	0.0	0.9627958227134515	-0.9810613671971072	0.0	0.9628217889917848	-0.7512219745309153	0.0	1.0332592582822144	-0.8433182381500214	0.0	0.9833202146228752	-0.9606747809266659	0.0	1.0374357126907765	-0.9789961979726821	0.0	1.0254763088456034	-0.9776486531147145	0.0	0.9636060587532961	-0.971912021265904	0.0	1.0195533194780797	-0.597037091339578	0.0	1.0566585825161732	-0.5245061205716632	0.0	1.0644964420198744	-0.5634648692801969	0.0	0.9988124148873844	-0.6203982200270981	0.0	0.9766099808805462	-0.6894017041623699	0.0	0.9725806961826098	-0.748001455977317	0.0	1.0124553993906467	-0.6158039042583903	0.0	1.001283422148624	-0.6813024442540556	0.0	1.0090418099651952	-0.7244016413536137	0.0
31	1.0432692307692306	0.9496053744026247	-0.7732895013100733	0.0	0.9434865735924134	-0.7751820427316615	0.0	1.0242808993053938	-0.8746126217624801	0.0	0.978015341911399	-0.9947128192077398	0.0	1.0286622726122716	-1.0091216659034004	0.0	1.0133952576332128	-1.0146798256219665	0.0	0.9631610468767584	-1.0057283512820931	0.0	0.9645083027071268	-0.7724388511454479	0.0	1.0282837139310224	-0.869855666887039	0.0	0.9819351898803663	-0.9869876793831968	0.0	1.037361475124206	-0.9983380039188642	0.0	1.021991228236253	-1.0008351232378863	0.0	0.9610306374836349	-0.9952919443081818	0.0	1.0072554749411664	-0.6078350502004197	0.0	1.0340708379447534	-0.530804221933439	0.0	1.0482901195406025	-0.569784979212525	0.0	0.9898235664284415	-0.6326930712889242	0.0	0.9983577040453736	-0.7001711846379851	0.0	1.0216196624191463	-0.7490824291699785	0.0	1.004733749213219	-0.6278870370886276	0.0	1.0227497569940116	-0.6870805400562059	0.0	1.0545157801614928	-0.7182110713636615	0.0
32	1.0769230769230769	0.954078993935917	-0.7895894960465407	0.0	0.9486081589346365	-0.7918295992081792	0.0	1.0189475563248296	-0.8975838021179121	0.0	0.9780427688647501	-1.0178892163127558	0.0	1.029343432793854	-1.0286980585122074	0.0	1.0136607797300572	-1.0360768455183746	0.0	0.9635299940192773	-1.027926911655674	0.0	0.9666240058138544	-0.7892625053968642	0.0	1.0213599576515546	-0.8933578637433576	0.0	0.9802344751580947	-1.009953725506697	0.0	1.0364129500336052	-1.0160920708194592	0.0	1.0179285868519716	-1.0220846753295676	0.0	0.9583175882451325	-1.0162028854544323	0.0	0.9941883525143648	-0.6152458116830443	0.0	1.009011665629558	-0.5352693742975967	0.0	1.03025561717597	-0.5735051073299	0.0	0.9808865096450656	-0.6393783414114462	0.0	1.017415562538582	-0.6937929269080411	0.0	1.061713849554372	-0.722209407496608	0.0	0.9955551553610464	-0.6349291714146574	0.0	1.0384334575339516	-0.6773538527558564	0.0	1.0872875353345868	-0.6888845729658931	0.0
33	1.1105769230769231	0.9594032833947239	-0.7979850369030422	0.0	0.9549123544815675	-0.7999927826752118	0.0	1.0132379273345766	-0.9129873600919712	0.0	0.977901124910087	-1.0341231664734467	0.0	1.0287229752790419	-1.0430853602609378	0.0	1.01364826798639	-1.0519332184189232	0.0	0.9636569508437861	-1.043785771698796	0.0	0.9689714641479008	-0.7978403369744781	0.0	1.0133190622524622	-0.9093700808335649	0.0	0.978175308936806	-1.0259935526439445	0.0	1.0340116688880474	-1.0308823288174431	0.0	1.0137394755468718	-1.0386076002876612	0.0	0.9558312761640009	-1.0317904769223607	0.0	0.980847420344903	-0.6172600651168516	0.0	0.9823527891386121	-0.5368026777449267	0.0	1.0107150237947458	-0.5729576836531308	0.0	0.972146902672227	-0.6379448853024963	0.0	1.0280101479173644	-0.6690377795504088	0.0	1.08223893138263	-0.6700643380048142	0.0	0.9844995464143811	-0.6350741743865715	0.0	1.0433440096864819	-0.6524787768334034	0.0	1.0978729486561425	-0.6402307647965563	0.0
34	1.1442307692307692	0.9651489201988697	-0.7954482719332762	0.0	0.9621708115859212	-0.7966319611743314	0.0	1.0084647029198075	-0.9171415840197227	0.0	0.977795286149254	-1.0404845579170101	0.0	1.0261659282216449	-1.0503395343255997	0.0	1.0127881360289133	-1.0595540108174168	0.0	0.9637060218069682	-1.0505459243719015	0.0	0.9712681023920388	-0.7951372258032208	0.0	1.0054586565381725	-0.9142755072991915	0.0	0.9761380047021708	-1.0325636525665611	0.0	1.0300432139685316	-1.040711714618291	0.0	1.009902742026141	-1.0477880796427315	0.0	0.9540731433084563	-1.039609689318342	0.0	0.9671548406927007	-0.6121149895256984	0.0	0.9545366406180997	-0.5342853030114644	0.0	0.9894362329473423	-0.566604037174601	0.0	0.9630295339994883	-0.6266063788535426	0.0	1.0259180139541282	-0.628471372000415	0.0	1.0772580911035197	-0.6018554511010747	0.0	0.9712426148864787	-0.6272817833258777	0.0	1.0353701189492002	-0.6156699185155659	0.0	1.0834189639479808	-0.5803004955629086	0.0
35	1.1778846153846154	0.9708221909383434	-0.7805145487911377	0.0	0.96966071528645	-0.7804616406806658	0.0	1.0062526895074804	-0.9078875041220105	0.0	0.9784749672392435	-1.0352512311898467	0.0	1.0223964108055088	-1.0488121594042377	0.0	1.011275965655574	-1.057126177080494	0.0	0.9644189521120602	-1.0465261299480706	0.0	0.973369289607327	-0.7798683327667785	0.0	0.999819855855359	-0.9058486605579151	0.0	0.9752746666533632	-1.0279115463967512	0.0	1.0254729742114308	-1.0425989704480378	0.0	1.007094797240759	-1.0474529565000703	0.0	0.9540771030506917	-1.037484197438767	0.0	0.9526462404086139	-0.5991000845878143	0.0	0.9254584521187852	-0.5272791667954926	0.0	0.9658060588815328	-0.5537241921267338	0.0	0.9524615856549654	-0.6052908710504507	0.0	1.0099444030695846	-0.577603943739204	0.0	1.0477641970728375	-0.5291122010674012	0.0	0.9558836059389726	-0.6118036389360182	0.0	1.0155453552143903	-0.5717635670920229	0.0	1.047624330683172	-0.5179670367186241	0.0
36	1.2115384615384615	0.975739996845693	-0.7536956341921326	0.0	0.9761027865323029	-0.7522761690748972	0.0	1.0082986946002732	-0.8847201266265978	0.0	0.9813650323213343	-1.0175974934657994	0.0	1.019858564664178	-1.0370368326081438	0.0	1.0109179045044476	-1.043622152334174	0.0	0.967156373800367	-1.030841378075612	0.0	0.9752848122420772	-0.7527392866763333	0.0	0.9989399281789252	-0.8834051686769268	0.0	0.9775240489572162	-1.0110427322224478	0.0	1.0229266232225434	-1.0335548736332705	0.0	1.0069783039246902	-1.0359989904132134	0.0	0.9575829581037809	-1.0238607641584216	0.0	0.9367929786714986	-0.5790544802155585	0.0	0.8949887109795153	-0.5165077231670745	0.0	0.9394463122417436	-0.5349609533731674	0.0	0.9393974004545924	-0.5760590893319539	0.0	0.9820179144182769	-0.5233007529727155	0.0	1.0002525206646575	-0.4613949059076598	0.0	0.9388630266447557	-0.5901029783902345	0.0	0.9872010460303371	-0.5261741837983274	0.0	0.998554801416056	-0.4607820603378342	0.0
